<svg id="Icons_Indicators-_-System-Icons-_-calendar-_-_333333" data-name="Icons+Indicators-/-System-Icons-/-calendar-/-#333333" xmlns="http://www.w3.org/2000/svg" width="24" height="24" viewBox="0 0 24 24">
  <g id="calendar">
    <path id="bg" d="M0,0H24V24H0Z" fill="rgba(216,216,216,0)" fill-rule="evenodd"/>
    <path id="path_1" d="M8.5,2.5v3" fill="none" stroke="#fff" stroke-linecap="round" stroke-width="1" fill-rule="evenodd"/>
    <path id="path_1-2" data-name="path_1" d="M15.5,2.5v3" fill="none" stroke="#fff" stroke-linecap="round" stroke-width="1" fill-rule="evenodd"/>
    <path id="Shape" d="M5,21.5A1.5,1.5,0,0,1,3.5,20V6A1.5,1.5,0,0,1,5,4.5H19A1.5,1.5,0,0,1,20.5,6V20A1.5,1.5,0,0,1,19,21.5Z" fill="none" stroke="#fff" stroke-linecap="round" stroke-width="1" fill-rule="evenodd"/>
    <path id="Shape-2" data-name="Shape" d="M20.5,8.5H3.5" fill="none" stroke="#fff" stroke-width="1" fill-rule="evenodd"/>
    <path id="path_2" d="M8.5,14.5h-3" fill="none" stroke="#fff" stroke-linecap="round" stroke-width="1" fill-rule="evenodd"/>
    <path id="path_2-2" data-name="path_2" d="M13.5,14.5h-3" fill="none" stroke="#fff" stroke-linecap="round" stroke-width="1" fill-rule="evenodd"/>
    <path id="path_2-3" data-name="path_2" d="M18.5,14.5h-3" fill="none" stroke="#fff" stroke-linecap="round" stroke-width="1" fill-rule="evenodd"/>
    <path id="path_2-4" data-name="path_2" d="M8.5,11.5h-3" fill="none" stroke="#fff" stroke-linecap="round" stroke-width="1" fill-rule="evenodd"/>
    <path id="path_2-5" data-name="path_2" d="M13.5,11.5h-3" fill="none" stroke="#fff" stroke-linecap="round" stroke-width="1" fill-rule="evenodd"/>
    <path id="path_2-6" data-name="path_2" d="M18.5,11.5h-3" fill="none" stroke="#fff" stroke-linecap="round" stroke-width="1" fill-rule="evenodd"/>
    <path id="path_2-7" data-name="path_2" d="M8.5,17.5h-3" fill="none" stroke="#fff" stroke-linecap="round" stroke-width="1" fill-rule="evenodd"/>
    <path id="path_2-8" data-name="path_2" d="M13.5,17.5h-3" fill="none" stroke="#fff" stroke-linecap="round" stroke-width="1" fill-rule="evenodd"/>
    <path id="path_2-9" data-name="path_2" d="M18.5,17.5h-3" fill="none" stroke="#fff" stroke-linecap="round" stroke-width="1" fill-rule="evenodd"/>
  </g>
</svg>
